<svg xmlns="http://www.w3.org/2000/svg" viewBox="0 0 800 600" width="800" height="600"><!-- Демо илюстрация за Майсторко (синтетична, генерирана от scripts/make-demo-art.py) --><rect width="800" height="600" fill="#dcd6c8"/><ellipse cx="400" cy="560" rx="220" ry="12" fill="#000" opacity=".12"/><rect x="210" y="70" width="380" height="470" rx="10" fill="#f4f2ec" stroke="#b9b3a3" stroke-width="3"/><rect x="235" y="95" width="330" height="420" rx="4" fill="#fbfaf7"/><rect x="250" y="125" width="300" height="12" fill="#c9c3b3"/><rect x="255" y="143" width="26" height="52" rx="3" fill="#fff" stroke="#bdb6a6"/><rect x="263" y="155" width="10" height="16" rx="2" fill="#c8221a"/><rect x="287" y="143" width="26" height="52" rx="3" fill="#fff" stroke="#bdb6a6"/><rect x="295" y="155" width="10" height="16" rx="2" fill="#16140f"/><rect x="319" y="143" width="26" height="52" rx="3" fill="#fff" stroke="#bdb6a6"/><rect x="327" y="155" width="10" height="16" rx="2" fill="#16140f"/><rect x="351" y="143" width="26" height="52" rx="3" fill="#fff" stroke="#bdb6a6"/><rect x="359" y="155" width="10" height="16" rx="2" fill="#16140f"/><rect x="383" y="143" width="26" height="52" rx="3" fill="#fff" stroke="#bdb6a6"/><rect x="391" y="155" width="10" height="16" rx="2" fill="#2d6fd6"/><rect x="415" y="143" width="26" height="52" rx="3" fill="#fff" stroke="#bdb6a6"/><rect x="423" y="155" width="10" height="16" rx="2" fill="#16140f"/><rect x="447" y="143" width="26" height="52" rx="3" fill="#fff" stroke="#bdb6a6"/><rect x="455" y="155" width="10" height="16" rx="2" fill="#16140f"/><rect x="479" y="143" width="26" height="52" rx="3" fill="#fff" stroke="#bdb6a6"/><rect x="487" y="155" width="10" height="16" rx="2" fill="#16140f"/><rect x="511" y="143" width="26" height="52" rx="3" fill="#fff" stroke="#bdb6a6"/><rect x="519" y="155" width="10" height="16" rx="2" fill="#2d6fd6"/><rect x="250" y="220" width="300" height="12" fill="#c9c3b3"/><rect x="255" y="238" width="26" height="52" rx="3" fill="#fff" stroke="#bdb6a6"/><rect x="263" y="250" width="10" height="16" rx="2" fill="#2d6fd6"/><rect x="287" y="238" width="26" height="52" rx="3" fill="#fff" stroke="#bdb6a6"/><rect x="295" y="250" width="10" height="16" rx="2" fill="#16140f"/><rect x="319" y="238" width="26" height="52" rx="3" fill="#fff" stroke="#bdb6a6"/><rect x="327" y="250" width="10" height="16" rx="2" fill="#16140f"/><rect x="351" y="238" width="26" height="52" rx="3" fill="#fff" stroke="#bdb6a6"/><rect x="359" y="250" width="10" height="16" rx="2" fill="#16140f"/><rect x="383" y="238" width="26" height="52" rx="3" fill="#fff" stroke="#bdb6a6"/><rect x="391" y="250" width="10" height="16" rx="2" fill="#2d6fd6"/><rect x="415" y="238" width="26" height="52" rx="3" fill="#fff" stroke="#bdb6a6"/><rect x="423" y="250" width="10" height="16" rx="2" fill="#16140f"/><rect x="447" y="238" width="26" height="52" rx="3" fill="#fff" stroke="#bdb6a6"/><rect x="455" y="250" width="10" height="16" rx="2" fill="#16140f"/><rect x="479" y="238" width="26" height="52" rx="3" fill="#fff" stroke="#bdb6a6"/><rect x="487" y="250" width="10" height="16" rx="2" fill="#16140f"/><rect x="511" y="238" width="26" height="52" rx="3" fill="#fff" stroke="#bdb6a6"/><rect x="519" y="250" width="10" height="16" rx="2" fill="#2d6fd6"/><rect x="250" y="315" width="300" height="12" fill="#c9c3b3"/><rect x="255" y="333" width="26" height="52" rx="3" fill="#fff" stroke="#bdb6a6"/><rect x="263" y="345" width="10" height="16" rx="2" fill="#2d6fd6"/><rect x="287" y="333" width="26" height="52" rx="3" fill="#fff" stroke="#bdb6a6"/><rect x="295" y="345" width="10" height="16" rx="2" fill="#16140f"/><rect x="319" y="333" width="26" height="52" rx="3" fill="#fff" stroke="#bdb6a6"/><rect x="327" y="345" width="10" height="16" rx="2" fill="#16140f"/><rect x="351" y="333" width="26" height="52" rx="3" fill="#fff" stroke="#bdb6a6"/><rect x="359" y="345" width="10" height="16" rx="2" fill="#16140f"/><rect x="383" y="333" width="26" height="52" rx="3" fill="#fff" stroke="#bdb6a6"/><rect x="391" y="345" width="10" height="16" rx="2" fill="#2d6fd6"/><rect x="415" y="333" width="26" height="52" rx="3" fill="#fff" stroke="#bdb6a6"/><rect x="423" y="345" width="10" height="16" rx="2" fill="#16140f"/><rect x="447" y="333" width="26" height="52" rx="3" fill="#fff" stroke="#bdb6a6"/><rect x="455" y="345" width="10" height="16" rx="2" fill="#16140f"/><rect x="479" y="333" width="26" height="52" rx="3" fill="#fff" stroke="#bdb6a6"/><rect x="487" y="345" width="10" height="16" rx="2" fill="#16140f"/><rect x="511" y="333" width="26" height="52" rx="3" fill="#fff" stroke="#bdb6a6"/><rect x="519" y="345" width="10" height="16" rx="2" fill="#2d6fd6"/><rect x="250" y="410" width="300" height="12" fill="#c9c3b3"/><rect x="255" y="428" width="26" height="52" rx="3" fill="#fff" stroke="#bdb6a6"/><rect x="263" y="440" width="10" height="16" rx="2" fill="#2d6fd6"/><rect x="287" y="428" width="26" height="52" rx="3" fill="#fff" stroke="#bdb6a6"/><rect x="295" y="440" width="10" height="16" rx="2" fill="#16140f"/><rect x="319" y="428" width="26" height="52" rx="3" fill="#fff" stroke="#bdb6a6"/><rect x="327" y="440" width="10" height="16" rx="2" fill="#16140f"/><rect x="351" y="428" width="26" height="52" rx="3" fill="#fff" stroke="#bdb6a6"/><rect x="359" y="440" width="10" height="16" rx="2" fill="#16140f"/><rect x="383" y="428" width="26" height="52" rx="3" fill="#fff" stroke="#bdb6a6"/><rect x="391" y="440" width="10" height="16" rx="2" fill="#2d6fd6"/><rect x="415" y="428" width="26" height="52" rx="3" fill="#fff" stroke="#bdb6a6"/><rect x="423" y="440" width="10" height="16" rx="2" fill="#16140f"/><rect x="447" y="428" width="26" height="52" rx="3" fill="#fff" stroke="#bdb6a6"/><rect x="455" y="440" width="10" height="16" rx="2" fill="#16140f"/><rect x="479" y="428" width="26" height="52" rx="3" fill="#fff" stroke="#bdb6a6"/><rect x="487" y="440" width="10" height="16" rx="2" fill="#16140f"/><rect x="511" y="428" width="26" height="52" rx="3" fill="#fff" stroke="#bdb6a6"/><rect x="519" y="440" width="10" height="16" rx="2" fill="#2d6fd6"/><path d="M170 0 C 190 200, 150 300, 240 360" stroke="#16140f" stroke-width="8" fill="none" opacity=".75"/><path d="M630 0 C 610 180, 660 320, 560 380" stroke="#6b665a" stroke-width="8" fill="none"/></svg>