<svg xmlns="http://www.w3.org/2000/svg" viewBox="0 0 800 600" width="800" height="600"><!-- Демо илюстрация за Майсторко (синтетична, генерирана от scripts/make-demo-art.py) --><rect width="800" height="600" fill="#cfe2ea"/><rect y="420" width="800" height="180" fill="#c7bda7"/><rect x="0" y="180" width="800" height="16" fill="#16140f"/><rect x="0" y="380" width="800" height="16" fill="#16140f"/><rect x="20" y="150" width="12" height="270" fill="#16140f"/><path d="M16 150 L26 128 L36 150Z" fill="#16140f"/><rect x="64" y="150" width="12" height="270" fill="#16140f"/><path d="M60 150 L70 128 L80 150Z" fill="#16140f"/><rect x="108" y="150" width="12" height="270" fill="#16140f"/><path d="M104 150 L114 128 L124 150Z" fill="#16140f"/><rect x="152" y="150" width="12" height="270" fill="#16140f"/><path d="M148 150 L158 128 L168 150Z" fill="#16140f"/><rect x="196" y="150" width="12" height="270" fill="#16140f"/><path d="M192 150 L202 128 L212 150Z" fill="#16140f"/><rect x="240" y="150" width="12" height="270" fill="#16140f"/><path d="M236 150 L246 128 L256 150Z" fill="#16140f"/><rect x="284" y="150" width="12" height="270" fill="#16140f"/><path d="M280 150 L290 128 L300 150Z" fill="#16140f"/><rect x="328" y="150" width="12" height="270" fill="#16140f"/><path d="M324 150 L334 128 L344 150Z" fill="#16140f"/><rect x="372" y="150" width="12" height="270" fill="#16140f"/><path d="M368 150 L378 128 L388 150Z" fill="#16140f"/><rect x="416" y="150" width="12" height="270" fill="#16140f"/><path d="M412 150 L422 128 L432 150Z" fill="#16140f"/><rect x="460" y="150" width="12" height="270" fill="#16140f"/><path d="M456 150 L466 128 L476 150Z" fill="#16140f"/><rect x="504" y="150" width="12" height="270" fill="#16140f"/><path d="M500 150 L510 128 L520 150Z" fill="#16140f"/><rect x="548" y="150" width="12" height="270" fill="#16140f"/><path d="M544 150 L554 128 L564 150Z" fill="#16140f"/><rect x="592" y="150" width="12" height="270" fill="#16140f"/><path d="M588 150 L598 128 L608 150Z" fill="#16140f"/><rect x="636" y="150" width="12" height="270" fill="#16140f"/><path d="M632 150 L642 128 L652 150Z" fill="#16140f"/><rect x="680" y="150" width="12" height="270" fill="#16140f"/><path d="M676 150 L686 128 L696 150Z" fill="#16140f"/><rect x="724" y="150" width="12" height="270" fill="#16140f"/><path d="M720 150 L730 128 L740 150Z" fill="#16140f"/><rect x="768" y="150" width="12" height="270" fill="#16140f"/><path d="M764 150 L774 128 L784 150Z" fill="#16140f"/><rect x="0" y="120" width="30" height="320" fill="#2b2924"/><rect x="770" y="120" width="30" height="320" fill="#2b2924"/></svg>