<svg xmlns="http://www.w3.org/2000/svg" viewBox="0 0 800 600" width="800" height="600"><!-- Демо илюстрация за Майсторко (синтетична, генерирана от scripts/make-demo-art.py) --><rect width="800" height="600" fill="#d9d4c6"/><rect y="430" width="800" height="170" fill="#b8a88c"/><line x1="-200" y1="600" x2="-60" y2="430" stroke="#a69577" stroke-width="2"/><line x1="-110" y1="600" x2="30" y2="430" stroke="#a69577" stroke-width="2"/><line x1="-20" y1="600" x2="120" y2="430" stroke="#a69577" stroke-width="2"/><line x1="70" y1="600" x2="210" y2="430" stroke="#a69577" stroke-width="2"/><line x1="160" y1="600" x2="300" y2="430" stroke="#a69577" stroke-width="2"/><line x1="250" y1="600" x2="390" y2="430" stroke="#a69577" stroke-width="2"/><line x1="340" y1="600" x2="480" y2="430" stroke="#a69577" stroke-width="2"/><line x1="430" y1="600" x2="570" y2="430" stroke="#a69577" stroke-width="2"/><line x1="520" y1="600" x2="660" y2="430" stroke="#a69577" stroke-width="2"/><line x1="610" y1="600" x2="750" y2="430" stroke="#a69577" stroke-width="2"/><line x1="700" y1="600" x2="840" y2="430" stroke="#a69577" stroke-width="2"/><line x1="790" y1="600" x2="930" y2="430" stroke="#a69577" stroke-width="2"/><rect x="120" y="290" width="200" height="150" fill="#c69a5b" stroke="#9c7440" stroke-width="3"/><rect x="206.0" y="290" width="28" height="150" fill="#e3c68c" opacity=".7"/><rect x="134" y="400" width="60" height="22" fill="#f4efe2"/><rect x="330" y="330" width="170" height="110" fill="#c69a5b" stroke="#9c7440" stroke-width="3"/><rect x="401.0" y="330" width="28" height="110" fill="#e3c68c" opacity=".7"/><rect x="344" y="400" width="60" height="22" fill="#f4efe2"/><rect x="150" y="170" width="150" height="120" fill="#c69a5b" stroke="#9c7440" stroke-width="3"/><rect x="211.0" y="170" width="28" height="120" fill="#e3c68c" opacity=".7"/><rect x="164" y="250" width="60" height="22" fill="#f4efe2"/><rect x="520" y="250" width="180" height="190" fill="#c69a5b" stroke="#9c7440" stroke-width="3"/><rect x="596.0" y="250" width="28" height="190" fill="#e3c68c" opacity=".7"/><rect x="534" y="400" width="60" height="22" fill="#f4efe2"/><rect x="350" y="230" width="120" height="100" fill="#c69a5b" stroke="#9c7440" stroke-width="3"/><rect x="396.0" y="230" width="28" height="100" fill="#e3c68c" opacity=".7"/><rect x="364" y="290" width="60" height="22" fill="#f4efe2"/></svg>